<svg version="1.2" xmlns="http://www.w3.org/2000/svg" viewBox="0 0 640 512" width="640" height="512">
	<title>gamepad-modern-regular-svg</title>
	<style>
		.s0 { fill: #ffffff } 
	</style>
	<path id="Layer" fill-rule="evenodd" class="s0" d="m518.4 480c-46.1-0.1-88.1-26.5-108.4-68l-13.7-28h-152.7l-13.8 28c-20.2 41.5-62.5 67.9-108.6 68-67.8 0-121.2-56.1-121.2-122.6 0-6.3 0.5-12.6 1.5-19l27.3-181.3c7.6-50.2 28.3-125.1 290.3-125.1 262.7 0 284.4 75.4 291.1 125.1l27.5 181.3q1.4 9.5 1.4 18.8c0 66.6-52.6 122.8-120.7 122.8zm71.8-134.3l-27.5-181.3c-4.9-31.9-27.7-56.9-58.5-63.8-60.9-13.7-123.9-20.6-185.1-20.6-61.2 0-123.3 6.9-184.3 20.6-30.7 6.9-53.6 31.9-58.5 63.7l-27.5 181.3q-0.9 5.8-0.9 11.6c0 17.9 6.4 35.5 18.3 49.4 13.5 16 33.5 25.4 54.6 25.4 42.4 0 61.2-31.6 65.9-41.1l18.3-37.1c5.4-10.9 16.5-17.8 28.7-17.8h172.5c12.2 0 23.3 6.9 27.8 17.9l18.3 37c12.5 25.4 37.5 41.1 65.3 41.1q0.2 0 0.4 0c21.1 0 41.2-9.2 54.8-25.3 11.9-13.9 18.3-31.5 18.3-49.5 0-3.9 0.6-7.7-0.9-11.5zm-160-73.7c0 17.6-14.4 32-31.1 32-16.7 0-31.1-14.4-31.1-32 0-17.6 13.5-32 31.1-32 18.5 0 31.1 14.4 31.1 32zm-159.1-48c0 13.2-10.8 24-24 24h-32v32c0 13.2-10.8 24-24 24-13.2 0-24-10.8-24-24v-32h-32c-13.2 0-24-10.8-24-24 0-13.2 10.8-24 24-24h32v-32c0-13.2 11.7-24 24-24 13.2 0 24 10.8 24 24v32h32c14.1 0 24 10.8 24 24zm223.1-48c0 17.6-13.5 32-31.1 32-16.7 0-31.1-14.4-31.1-32 0-17.6 13.5-32 31.1-32 18.5 0 31.1 14.4 31.1 32z"/>
</svg>