<svg width="59" height="70" viewBox="0 0 59 70" fill="none" xmlns="http://www.w3.org/2000/svg">
<path d="M10.162 26.2H14.614C15.678 26.2 16.616 26.4053 17.428 26.816C18.2493 27.2173 18.884 27.7867 19.332 28.524C19.7893 29.2613 20.018 30.12 20.018 31.1C20.018 32.08 19.7893 32.9387 19.332 33.676C18.884 34.4133 18.2493 34.9873 17.428 35.398C16.616 35.7993 15.678 36 14.614 36H10.162V26.2ZM14.502 34.138C15.482 34.138 16.2613 33.8673 16.84 33.326C17.428 32.7753 17.722 32.0333 17.722 31.1C17.722 30.1667 17.428 29.4293 16.84 28.888C16.2613 28.3373 15.482 28.062 14.502 28.062H12.43V34.138H14.502ZM21.7284 26.2H26.1804C27.2444 26.2 28.1824 26.4053 28.9944 26.816C29.8157 27.2173 30.4504 27.7867 30.8984 28.524C31.3557 29.2613 31.5844 30.12 31.5844 31.1C31.5844 32.08 31.3557 32.9387 30.8984 33.676C30.4504 34.4133 29.8157 34.9873 28.9944 35.398C28.1824 35.7993 27.2444 36 26.1804 36H21.7284V26.2ZM26.0684 34.138C27.0484 34.138 27.8277 33.8673 28.4064 33.326C28.9944 32.7753 29.2884 32.0333 29.2884 31.1C29.2884 30.1667 28.9944 29.4293 28.4064 28.888C27.8277 28.3373 27.0484 28.062 26.0684 28.062H23.9964V34.138H26.0684ZM36.7248 36.112C35.9315 36.112 35.2175 35.9487 34.5828 35.622C33.9575 35.286 33.4675 34.824 33.1128 34.236C32.7581 33.648 32.5808 32.9807 32.5808 32.234C32.5808 31.4873 32.7581 30.82 33.1128 30.232C33.4675 29.644 33.9575 29.1867 34.5828 28.86C35.2175 28.524 35.9315 28.356 36.7248 28.356C37.5181 28.356 38.2275 28.524 38.8528 28.86C39.4781 29.1867 39.9681 29.644 40.3228 30.232C40.6775 30.82 40.8548 31.4873 40.8548 32.234C40.8548 32.9807 40.6775 33.648 40.3228 34.236C39.9681 34.824 39.4781 35.286 38.8528 35.622C38.2275 35.9487 37.5181 36.112 36.7248 36.112ZM36.7248 34.32C37.2848 34.32 37.7421 34.1333 38.0968 33.76C38.4608 33.3773 38.6428 32.8687 38.6428 32.234C38.6428 31.5993 38.4608 31.0953 38.0968 30.722C37.7421 30.3393 37.2848 30.148 36.7248 30.148C36.1648 30.148 35.7028 30.3393 35.3388 30.722C34.9748 31.0953 34.7928 31.5993 34.7928 32.234C34.7928 32.8687 34.9748 33.3773 35.3388 33.76C35.7028 34.1333 36.1648 34.32 36.7248 34.32ZM45.6886 36.168C44.914 36.168 44.1626 36.0653 43.4346 35.86C42.716 35.6453 42.1373 35.37 41.6986 35.034L42.4686 33.326C42.8886 33.634 43.388 33.8813 43.9666 34.068C44.5453 34.2547 45.124 34.348 45.7026 34.348C46.3466 34.348 46.8226 34.2547 47.1306 34.068C47.4386 33.872 47.5926 33.6153 47.5926 33.298C47.5926 33.0647 47.4993 32.8733 47.3126 32.724C47.1353 32.5653 46.902 32.4393 46.6126 32.346C46.3326 32.2527 45.95 32.15 45.4646 32.038C44.718 31.8607 44.1066 31.6833 43.6306 31.506C43.1546 31.3287 42.744 31.044 42.3986 30.652C42.0626 30.26 41.8946 29.7373 41.8946 29.084C41.8946 28.5147 42.0486 28.0013 42.3566 27.544C42.6646 27.0773 43.1266 26.7087 43.7426 26.438C44.368 26.1673 45.1286 26.032 46.0246 26.032C46.65 26.032 47.2613 26.1067 47.8586 26.256C48.456 26.4053 48.9786 26.62 49.4266 26.9L48.7266 28.622C47.8213 28.1087 46.916 27.852 46.0106 27.852C45.376 27.852 44.9046 27.9547 44.5966 28.16C44.298 28.3653 44.1486 28.636 44.1486 28.972C44.1486 29.308 44.3213 29.56 44.6666 29.728C45.0213 29.8867 45.558 30.0453 46.2766 30.204C47.0233 30.3813 47.6346 30.5587 48.1106 30.736C48.5866 30.9133 48.9926 31.1933 49.3286 31.576C49.674 31.9587 49.8466 32.4767 49.8466 33.13C49.8466 33.69 49.688 34.2033 49.3706 34.67C49.0626 35.1273 48.596 35.4913 47.9706 35.762C47.3453 36.0327 46.5846 36.168 45.6886 36.168Z" fill="white"/>
<path d="M52.037 8.91406C45.3709 7.72461 39.227 4.10156 36.162 2.05078C34.1553 0.710938 31.8324 0 29.4271 0C27.0218 0 24.699 0.710938 22.6923 2.05078C19.6273 4.10156 13.4834 7.72461 6.81731 8.91406C2.87262 9.61133 0 13.0156 0 16.9941V33.4961C0 38.9512 1.53939 44.2695 4.5632 49.2871C6.92727 53.2246 10.2122 56.9844 14.3081 60.4707C21.1941 66.3223 28.0252 69.3848 28.3138 69.5078L29.4271 70L30.5405 69.5078C30.8291 69.3848 37.6464 66.3223 44.5462 60.4707C48.6421 56.9844 51.927 53.2246 54.2911 49.2871C57.3149 44.2559 58.8543 38.9375 58.8543 33.4961V16.9941C58.8406 13.0156 55.9817 9.61133 52.037 8.91406ZM54.4423 33.4414C54.4423 41.9453 50.1265 49.9297 41.6186 57.2031C36.6705 61.4277 31.64 64.1895 29.4271 65.2969C24.3417 62.7266 4.41201 51.502 4.41201 33.4414V16.1875C4.41201 14.8066 5.41536 13.6172 6.80357 13.3711C14.8167 11.9492 22.0188 7.71094 25.5924 5.30469C26.7332 4.53906 28.0664 4.12891 29.4271 4.12891C30.7879 4.12891 32.1211 4.53906 33.2619 5.30469C36.8492 7.69727 44.0514 11.9355 52.0507 13.3711C53.4389 13.6172 54.4423 14.8066 54.4423 16.1875V33.4414Z" fill="#1B57C4"/>
</svg>
