<svg width="23" height="23" viewBox="0 0 23 23" fill="none" xmlns="http://www.w3.org/2000/svg">
<path d="M6.42746 8.80817V15.1359M17.0513 8.80817V15.1359" stroke="#1A55BF" stroke-linecap="round" stroke-linejoin="round"/>
<path d="M6.42746 11.972C6.72369 12.7181 8.23715 14.2104 11.9212 14.2104C15.6052 14.2104 16.8763 12.7181 17.0513 11.972" stroke="#1A55BF" stroke-linecap="round" stroke-linejoin="round"/>
<path d="M16.9224 8.86371C16.9224 9.27246 16.5413 9.80193 15.55 10.2583C14.6017 10.6949 13.2564 10.9783 11.7437 10.9783C10.2309 10.9783 8.88561 10.6949 7.93726 10.2583C6.94602 9.80193 6.56488 9.27246 6.56488 8.86371C6.56488 8.45495 6.94602 7.92548 7.93726 7.46911C8.88561 7.03248 10.2309 6.74915 11.7437 6.74915C13.2564 6.74915 14.6017 7.03248 15.55 7.46911C16.5413 7.92548 16.9224 8.45495 16.9224 8.86371Z" stroke="white"/>
<path d="M6.42746 15.1359C6.72369 15.882 8.23715 17.3742 11.9212 17.3742C15.6052 17.3742 16.8763 15.882 17.0513 15.1359" stroke="#1A55BF" stroke-linecap="round" stroke-linejoin="round"/>
<mask id="path-5-inside-1_0_62" fill="white">
<path d="M5.31942 3.69442C5.1416 3.46518 5.18262 3.13405 5.42009 2.96738C7.35188 1.61146 9.67323 0.910072 12.0418 0.975194C14.5857 1.04514 17.0267 1.995 18.9488 3.66293C20.871 5.33086 22.1553 7.61366 22.583 10.1224C23.0107 12.6311 22.5553 15.2105 21.2944 17.4211C20.0335 19.6317 18.0451 21.3367 15.6681 22.2456C13.291 23.1545 10.6723 23.211 8.25821 22.4056C5.84411 21.6002 3.78395 19.9827 2.42877 17.8286C1.16702 15.8231 0.589072 13.468 0.772796 11.115C0.79538 10.8257 1.05951 10.6219 1.34735 10.6582V10.6582C1.63518 10.6946 1.83758 10.9574 1.81645 11.2468C1.66229 13.3584 2.18576 15.4694 3.31804 17.2692C4.54379 19.2175 6.40718 20.6805 8.59071 21.409C10.7742 22.1375 13.1428 22.0863 15.2928 21.2642C17.4429 20.4421 19.2413 18.9 20.3818 16.9005C21.5223 14.9011 21.9342 12.568 21.5473 10.2989C21.1605 8.02984 19.9988 5.96507 18.2603 4.45645C16.5217 2.94782 14.3139 2.08869 12.0129 2.02542C9.88736 1.96698 7.80386 2.59101 6.06481 3.7986C5.82651 3.96407 5.49724 3.92366 5.31942 3.69442V3.69442Z"/>
</mask>
<path d="M5.31942 3.69442C5.1416 3.46518 5.18262 3.13405 5.42009 2.96738C7.35188 1.61146 9.67323 0.910072 12.0418 0.975194C14.5857 1.04514 17.0267 1.995 18.9488 3.66293C20.871 5.33086 22.1553 7.61366 22.583 10.1224C23.0107 12.6311 22.5553 15.2105 21.2944 17.4211C20.0335 19.6317 18.0451 21.3367 15.6681 22.2456C13.291 23.1545 10.6723 23.211 8.25821 22.4056C5.84411 21.6002 3.78395 19.9827 2.42877 17.8286C1.16702 15.8231 0.589072 13.468 0.772796 11.115C0.79538 10.8257 1.05951 10.6219 1.34735 10.6582V10.6582C1.63518 10.6946 1.83758 10.9574 1.81645 11.2468C1.66229 13.3584 2.18576 15.4694 3.31804 17.2692C4.54379 19.2175 6.40718 20.6805 8.59071 21.409C10.7742 22.1375 13.1428 22.0863 15.2928 21.2642C17.4429 20.4421 19.2413 18.9 20.3818 16.9005C21.5223 14.9011 21.9342 12.568 21.5473 10.2989C21.1605 8.02984 19.9988 5.96507 18.2603 4.45645C16.5217 2.94782 14.3139 2.08869 12.0129 2.02542C9.88736 1.96698 7.80386 2.59101 6.06481 3.7986C5.82651 3.96407 5.49724 3.92366 5.31942 3.69442V3.69442Z" stroke="#1B57C4" stroke-width="2" mask="url(#path-5-inside-1_0_62)"/>
<path d="M5.53574 1.63812L5.07852 3.88274L7.3839 4.35234" stroke="#1B57C4" stroke-linecap="round" stroke-linejoin="round"/>
</svg>
