<svg width="70" height="24" viewBox="0 0 70 24" fill="none" xmlns="http://www.w3.org/2000/svg">
<rect x="0.5" y="0.5" width="22.0157" height="22.0157" rx="2.5" stroke="#1B57C4"/>
<rect x="26.16" y="0.5" width="22.0157" height="22.0157" rx="2.5" stroke="#1B57C4"/>
<path d="M59.2641 0.640808H55.5844C53.9276 0.640808 52.5844 1.98395 52.5844 3.6408V19.3413C52.5844 20.9982 53.9276 22.3413 55.5844 22.3413H59.2641" stroke="#1B57C4" stroke-linecap="round"/>
<rect x="-0.0385324" y="0.706056" width="1.50706" height="9.36702" rx="0.5" transform="matrix(-0.744589 0.667524 0.667524 0.744589 10.8273 9.47006)" stroke="#1B57C4"/>
<path d="M6.64391 7.71662L9.64448 5.02661C10.0557 4.65795 10.6879 4.69245 11.0566 5.10367L11.8181 5.95309C12.1868 6.36432 12.1523 6.99654 11.741 7.36521L7.34434 11.3068C7.05818 11.5634 6.61824 11.5394 6.36169 11.2532C6.2385 11.1158 6.17494 10.9351 6.18499 10.7508L6.31292 8.40672C6.32737 8.14189 6.44643 7.89366 6.64391 7.71662Z" stroke="white"/>
<path d="M31.2523 7.70366V14.7448M43.074 7.70366V14.7448" stroke="#1A55BF" stroke-linecap="round" stroke-linejoin="round"/>
<path d="M31.2523 11.2242C31.5819 12.0544 33.266 13.7149 37.3654 13.7149C41.4648 13.7149 42.8792 12.0544 43.074 11.2242" stroke="#1A55BF" stroke-linecap="round" stroke-linejoin="round"/>
<path d="M42.9869 7.76545C42.9869 8.2556 42.5341 8.85877 41.427 9.36849C40.3628 9.85846 38.8574 10.1748 37.1678 10.1748C35.4783 10.1748 33.9729 9.85846 32.9087 9.36849C31.8016 8.85877 31.3488 8.2556 31.3488 7.76545C31.3488 7.27529 31.8016 6.67213 32.9087 6.16241C33.9729 5.67244 35.4783 5.35611 37.1678 5.35611C38.8574 5.35611 40.3628 5.67244 41.427 6.16241C42.5341 6.67213 42.9869 7.27529 42.9869 7.76545Z" stroke="white"/>
<path d="M31.2523 14.7447C31.5819 15.575 33.266 17.2355 37.3654 17.2355C41.4648 17.2355 42.8792 15.575 43.074 14.7447" stroke="#1A55BF" stroke-linecap="round" stroke-linejoin="round"/>
<path d="M61.9954 0.640808H65.2048" stroke="#1B57C4" stroke-linecap="round"/>
<path d="M61.6199 22.3413H64.8292" stroke="#1B57C4" stroke-linecap="round"/>
<path d="M67.5947 0.640808H69.1652" stroke="#1B57C4" stroke-linecap="round"/>
<path d="M67.2191 22.3413H68.7896" stroke="#1B57C4" stroke-linecap="round"/>
<path d="M61.8734 7.36064L60.8916 7.80437L59.8814 7.04909L58.503 8.41804L59.2771 9.36214L58.8429 10.3629L58.3519 10.4667V12.5154L58.8429 12.591L59.2771 13.6672L58.5219 14.5925L59.938 15.9331L60.8538 15.225L61.8829 15.6687L61.9584 16.83H63.9599L64.0732 15.6121L65.1211 15.1684L66.0652 15.9331L67.4625 14.6019L66.6978 13.5823L67.1132 12.6193L67.5947 12.5721V10.4667L67.1132 10.3723L66.6978 9.3527L67.4625 8.41804L66.0747 7.05853L65.1211 7.80437L64.1015 7.36064L63.9505 6.15219H62.0434L61.8734 7.36064Z" stroke="white" stroke-linecap="round" stroke-linejoin="round"/>
<circle cx="62.9733" cy="11.5079" r="1.79324" stroke="white"/>
</svg>
