<svg width="33" height="19" viewBox="0 0 33 19" fill="none" xmlns="http://www.w3.org/2000/svg">
<rect x="0.973511" y="0.775925" width="14.5729" height="17.3281" rx="1.5" stroke="#37D79D"/>
<path d="M23.6217 15.0627H28.161L29.264 12.0931V9.08098C29.2978 8.81014 29.2083 8.26847 28.5808 8.26847C27.9533 8.26847 27.8874 8.66329 27.9328 8.8607V8.06792C27.8991 7.86551 27.7136 7.46069 27.2413 7.46069C26.769 7.46069 26.516 7.86551 26.4485 8.06792V7.46069C26.3923 7.2639 26.1752 6.87032 25.7569 6.87032C25.234 6.87032 24.8461 7.00526 24.8798 7.46069C24.8798 6.77249 24.8798 5.18356 24.8798 4.47512C24.8854 4.25584 24.7516 3.81729 24.1714 3.81729C23.5911 3.81729 23.3786 4.25584 23.3449 4.47512V10.3619L22.2822 9.31613C22.0067 9.0856 21.3646 8.82359 21.0003 9.61974C21.2971 10.1325 21.8324 11.0029 22.0629 11.374C22.5117 12.062 23.4518 13.763 23.6217 15.0627Z" stroke="white" stroke-linejoin="round"/>
<path fill-rule="evenodd" clip-rule="evenodd" d="M19.9556 10.2186H19.3487C18.2442 10.2186 17.3487 11.1141 17.3487 12.2186V16.6041C17.3487 17.7086 18.2442 18.6041 19.3487 18.6041H30.9217C32.0262 18.6041 32.9217 17.7086 32.9217 16.6041V12.2186C32.9217 11.1141 32.0262 10.2186 30.9217 10.2186H30.3792V11.2186H30.9217C31.4739 11.2186 31.9217 11.6664 31.9217 12.2186V16.6041C31.9217 17.1563 31.4739 17.6041 30.9217 17.6041H19.3487C18.7964 17.6041 18.3487 17.1563 18.3487 16.6041V12.2186C18.3487 11.6664 18.7964 11.2186 19.3487 11.2186H19.9556V10.2186Z" fill="#37D79D"/>
<path fill-rule="evenodd" clip-rule="evenodd" d="M19.3487 1.27592H30.9217C31.4739 1.27592 31.9217 1.72364 31.9217 2.27592V6.66134C31.9217 7.21363 31.4739 7.66134 30.9217 7.66134H30.4633V8.66134H30.9217C32.0262 8.66134 32.9217 7.76591 32.9217 6.66134V2.27592C32.9217 1.17136 32.0262 0.275925 30.9217 0.275925H19.3487C18.2442 0.275925 17.3487 1.17136 17.3487 2.27592V6.66134C17.3487 7.76591 18.2442 8.66134 19.3487 8.66134H19.9556V7.66134H19.3487C18.7964 7.66134 18.3487 7.21363 18.3487 6.66134V2.27592C18.3487 1.72364 18.7964 1.27592 19.3487 1.27592Z" fill="#37D79D"/>
</svg>
