<svg width="28" height="19" viewBox="0 0 28 19" fill="none" xmlns="http://www.w3.org/2000/svg">
<path d="M0.60722 11.4569C0.765428 6.52988 4.30814 5.31695 6.05972 5.32637H11.7665L10.4952 9.36631H7.21802C6.38932 9.32864 4.73191 9.72228 4.73191 11.5982C4.73191 13.4741 6.08797 13.943 6.766 13.943H9.44988C9.10144 15.2238 8.49888 17.3382 8.29547 18.0615C5.93833 18.0615 0.409459 17.6157 0.60722 11.4569Z" stroke="white" stroke-linecap="round" stroke-linejoin="round"/>
<path d="M15.3421 0.940308L10.7015 18.0615H14.9962L18.5992 5.11971H21.3662C22.0772 5.29265 23.453 6.0363 23.2686 7.62736C23.0841 9.21841 22.0196 9.63539 21.5103 9.645H19.3781L18.2246 13.8244H21.5103C23.3935 13.6611 27.2174 12.193 27.448 7.62736C27.6786 3.06172 23.8354 1.26697 21.8851 0.940308H15.3421Z" stroke="#1B57C4" stroke-linecap="round" stroke-linejoin="round"/>
</svg>
