<svg width="62" height="58" viewBox="0 0 62 58" fill="none" xmlns="http://www.w3.org/2000/svg">
<path d="M4.27091 58C3.58756 58 2.88286 57.8234 2.24223 57.4703C0.854181 56.6979 0 55.2192 0 53.586V8.82801C0 3.95053 3.82246 0 8.54182 0H52.5108C57.2302 0 61.0526 3.95053 61.0526 8.82801V40.6088C61.0526 45.4863 57.2302 49.4368 52.5108 49.4368H17.6816C17.2331 49.7458 16.3576 50.3638 15.5247 50.9817C14.2008 51.9528 12.5778 53.1667 10.6132 54.5129C9.28923 55.4399 7.92253 56.3668 6.59855 57.2717C5.91521 57.7572 5.08238 58 4.27091 58ZM8.54182 4.414C6.19282 4.414 4.27091 6.4003 4.27091 8.82801V53.586C5.59489 52.6811 6.94023 51.7542 8.24285 50.8493C10.1434 49.5251 11.745 48.3554 13.0476 47.3843C15.7169 45.4201 16.2722 45.0008 17.1904 45.0008H52.5108C54.8598 45.0008 56.7817 43.0145 56.7817 40.5868V8.82801C56.7817 6.4003 54.8598 4.414 52.5108 4.414H8.54182Z" fill="#37D79D"/>
<path d="M17.274 27.7199C19.0313 27.7199 20.4558 26.2477 20.4558 24.4315C20.4558 22.6153 19.0313 21.1431 17.274 21.1431C15.5167 21.1431 14.0922 22.6153 14.0922 24.4315C14.0922 26.2477 15.5167 27.7199 17.274 27.7199Z" fill="white"/>
<path d="M29.6443 27.7199C31.4016 27.7199 32.8261 26.2477 32.8261 24.4315C32.8261 22.6153 31.4016 21.1431 29.6443 21.1431C27.8871 21.1431 26.4625 22.6153 26.4625 24.4315C26.4625 26.2477 27.8871 27.7199 29.6443 27.7199Z" fill="white"/>
<path d="M42.3027 27.7199C44.06 27.7199 45.4845 26.2477 45.4845 24.4315C45.4845 22.6153 44.06 21.1431 42.3027 21.1431C40.5454 21.1431 39.1209 22.6153 39.1209 24.4315C39.1209 26.2477 40.5454 27.7199 42.3027 27.7199Z" fill="white"/>
</svg>
